<?xml version="1.0" standalone="no"?>
<!DOCTYPE svg PUBLIC "-//W3C//DTD SVG 20010904//EN"
 "http://www.w3.org/TR/2001/REC-SVG-20010904/DTD/svg10.dtd">
<svg version="1.0" xmlns="http://www.w3.org/2000/svg"
 width="880.000000pt" height="880.000000pt" viewBox="0 0 880.000000 880.000000"
 preserveAspectRatio="xMidYMid meet">
<metadata>
Created by potrace 1.14, written by Peter Selinger 2001-2017
</metadata>
<g transform="translate(0.000000,880.000000) scale(0.100000,-0.100000)"
fill="#000000" stroke="none">
<path d="M436 7004 c-163 -43 -320 -177 -387 -331 -37 -84 -48 -151 -44 -263
4 -142 37 -239 115 -341 30 -40 132 -139 143 -139 4 0 20 -9 35 -20 15 -11 61
-32 102 -47 114 -39 217 -40 386 0 6 2 42 21 80 42 62 37 139 103 189 165 27
33 85 153 91 188 3 15 9 43 13 62 12 57 6 190 -14 265 -17 66 -52 142 -81 176
-8 8 -14 18 -14 22 0 9 -68 77 -120 118 -48 39 -126 81 -175 94 -16 5 -37 10
-45 13 -36 10 -229 8 -274 -4z"/>
<path d="M2509 7016 c-2 -2 -26 -6 -54 -9 -269 -28 -502 -182 -601 -397 -22
-49 -51 -138 -58 -180 -3 -19 -8 -48 -11 -65 -9 -54 -16 -245 -20 -543 -2
-162 -6 -297 -10 -300 -3 -4 -372 -7 -818 -7 l-812 0 0 -1825 0 -1825 457 0
456 0 4 45 c2 25 1 63 -2 85 -3 22 -3 65 0 96 3 31 3 66 0 79 -3 12 -3 52 0
89 3 36 3 82 0 101 -3 19 -3 59 0 88 3 28 2 52 -3 52 -4 0 -6 4 -3 9 3 5 6 58
6 117 1 60 1 152 1 204 0 52 0 102 0 110 0 8 0 47 0 85 0 39 0 77 0 85 0 8 0
47 0 85 1 39 1 79 1 90 -3 96 -2 158 3 166 4 5 1 9 -5 9 -6 0 -9 4 -5 9 8 13
9 347 1 360 -4 5 -2 12 4 16 6 4 8 10 5 15 -5 9 -9 104 -5 125 1 6 1 44 0 85
-1 91 -1 102 0 262 1 70 -1 131 -4 137 -4 5 -2 12 4 16 6 4 8 10 5 15 -5 8 -9
103 -5 125 1 6 2 34 2 63 0 28 3 52 6 52 210 5 697 -1 705 -9 12 -12 15 -58 5
-88 -4 -12 -4 -24 0 -27 4 -2 6 -60 4 -128 -1 -67 -2 -129 -2 -135 0 -7 0 -41
0 -75 0 -35 -1 -87 -2 -116 -2 -28 -1 -52 2 -52 7 0 4 -106 -4 -118 -3 -6 -3
-13 1 -15 5 -3 7 -58 6 -124 -3 -113 -3 -182 0 -248 0 -17 -2 -38 -6 -48 -3
-9 -3 -17 1 -17 6 0 6 -212 0 -338 -2 -28 -1 -52 2 -52 7 0 4 -106 -4 -118 -3
-6 -3 -13 1 -15 5 -3 7 -58 6 -124 -3 -113 -3 -182 0 -248 0 -17 -2 -38 -6
-48 -3 -9 -3 -17 1 -17 8 0 7 -282 -1 -304 -4 -9 -3 -16 1 -16 4 0 6 -64 5
-142 -4 -190 -3 -239 1 -247 3 -4 208 -6 458 -6 l453 0 1 1433 c0 787 3 1434
5 1437 9 8 733 6 764 -2 17 -5 126 -8 243 -7 149 1 212 -2 213 -10 1 -6 2
-650 3 -1431 l1 -1420 458 0 457 0 0 140 c0 77 2 720 3 1430 l2 1290 223 1
c122 1 222 0 222 -2 0 -2 -13 -30 -29 -61 -51 -99 -103 -229 -127 -313 -42
-151 -69 -293 -81 -415 -8 -89 -8 -400 0 -480 10 -93 17 -145 23 -175 3 -14 7
-34 9 -45 2 -11 12 -56 24 -100 85 -332 240 -602 486 -851 146 -147 278 -247
435 -331 117 -62 283 -124 365 -137 20 -4 41 -9 46 -11 27 -18 221 -33 364
-30 169 3 197 6 312 29 39 8 178 48 188 54 6 4 12 7 15 8 64 13 356 176 368
206 2 4 10 8 18 8 8 0 14 4 14 9 0 5 13 17 29 28 15 10 53 40 83 67 31 27 60
47 64 45 5 -2 9 -85 9 -184 l0 -180 458 0 457 -1 0 1826 0 1825 -458 0 -458 0
1 -197 c0 -109 -3 -198 -7 -198 -4 0 -11 6 -15 13 -16 26 -179 160 -267 218
-138 93 -355 189 -478 213 -13 2 -45 9 -73 16 -88 20 -137 24 -315 24 -177 0
-259 -8 -295 -27 -11 -6 -22 -10 -25 -9 -9 3 -72 -20 -104 -37 -28 -16 -95
-17 -756 -17 l-725 1 -2 669 c-1 367 -4 670 -7 673 -4 4 -858 8 -901 4 -7 -1
-10 -229 -9 -663 0 -365 -1 -667 -3 -673 -4 -12 -1207 -14 -1219 -2 -8 7 -8
227 0 447 4 142 18 186 68 223 54 39 113 53 223 51 55 -1 111 -5 125 -8 14 -4
39 -8 55 -11 49 -8 59 -10 70 -17 6 -3 23 -8 40 -9 l29 -4 1 343 c0 221 -3
346 -10 352 -9 7 -107 40 -180 60 -181 51 -299 68 -471 68 -67 1 -123 -1 -125
-2z m4554 -2260 c134 -13 308 -78 426 -158 151 -104 284 -270 352 -439 78
-194 104 -478 64 -699 -2 -14 -7 -41 -11 -60 -3 -19 -10 -42 -15 -51 -4 -9 -6
-19 -3 -22 3 -3 2 -12 -2 -19 -5 -7 -9 -15 -10 -18 0 -3 -4 -12 -7 -20 -15
-36 -30 -76 -33 -86 -4 -23 -84 -152 -126 -205 -54 -69 -130 -144 -180 -176
-21 -14 -38 -30 -38 -34 0 -5 -5 -9 -10 -9 -6 0 -27 -10 -48 -23 -36 -22 -151
-75 -182 -83 -125 -33 -205 -42 -330 -39 -74 1 -147 5 -162 9 -16 3 -38 8 -50
10 -37 6 -152 47 -163 57 -5 5 -15 9 -23 9 -30 0 -192 117 -269 196 -76 76
-173 207 -173 233 0 6 -4 11 -10 11 -5 0 -10 7 -10 15 0 8 -9 30 -20 50 -11
19 -20 36 -19 38 0 1 -2 9 -5 17 -53 164 -68 254 -69 415 -2 214 31 372 113
549 18 38 36 74 41 80 5 6 31 40 58 76 162 219 394 352 656 377 33 3 61 6 62
7 4 4 129 -2 196 -8z"/>
</g>
</svg>
