<?xml version="1.0" encoding="UTF-8" standalone="no"?>
<!-- Created with Inkscape (http://www.inkscape.org/) -->

<svg
   width="21.184305mm"
   height="21.183952mm"
   viewBox="0 0 21.184305 21.183952"
   version="1.1"
   id="svg4134"
   inkscape:version="1.1.2 (b8e25be833, 2022-02-05)"
   sodipodi:docname="Data Red.svg"
   xmlns:inkscape="http://www.inkscape.org/namespaces/inkscape"
   xmlns:sodipodi="http://sodipodi.sourceforge.net/DTD/sodipodi-0.dtd"
   xmlns="http://www.w3.org/2000/svg"
   xmlns:svg="http://www.w3.org/2000/svg">
  <sodipodi:namedview
     id="namedview4136"
     pagecolor="#ffffff"
     bordercolor="#666666"
     borderopacity="1.0"
     inkscape:pageshadow="2"
     inkscape:pageopacity="0.0"
     inkscape:pagecheckerboard="0"
     inkscape:document-units="mm"
     showgrid="false"
     inkscape:zoom="0.77771465"
     inkscape:cx="81.649485"
     inkscape:cy="139.51132"
     inkscape:window-width="2560"
     inkscape:window-height="1351"
     inkscape:window-x="-9"
     inkscape:window-y="-9"
     inkscape:window-maximized="1"
     inkscape:current-layer="layer1" />
  <defs
     id="defs4131">
    <clipPath
       clipPathUnits="userSpaceOnUse"
       id="clipPath635">
      <path
         d="M 0,4396.971 H 1423 V 0 H 0 Z"
         id="path633" />
    </clipPath>
  </defs>
  <g
     inkscape:label="Layer 1"
     inkscape:groupmode="layer"
     id="layer1"
     transform="translate(-83.30475,-111.54205)">
    <g
       id="g629"
       transform="matrix(0.35277777,0,0,-0.35277777,-181.47765,420.81142)">
      <g
         id="g631"
         clip-path="url(#clipPath635)">
        <g
           id="g637"
           transform="translate(810.6143,846.6441)">
          <path
             d="m 0,0 c 0,-16.582 -13.443,-30.024 -30.025,-30.024 -16.582,0 -30.025,13.442 -30.025,30.024 0,16.583 13.443,30.025 30.025,30.025 C -13.443,30.025 0,16.583 0,0"
             style="fill:#e01f29;fill-opacity:1;fill-rule:nonzero;stroke:none"
             id="path639" />
        </g>
        <g
           id="g641"
           transform="translate(796.043,841.2007)">
          <path
             d="m 0,0 c -0.003,-2.103 -1.229,-3.74 -3.189,-4.241 -0.419,-0.108 -0.867,-0.144 -1.301,-0.146 -3.658,-0.01 -7.317,-0.006 -10.975,-0.006 v 10e-4 c -3.702,0 -7.404,-0.006 -11.106,0.003 -1.947,0.006 -3.551,1.136 -4.105,2.905 -0.145,0.465 -0.22,0.973 -0.223,1.463 -0.018,3.643 -0.013,7.287 -0.008,10.93 0.004,2.531 1.844,4.367 4.381,4.368 7.36,0.003 14.72,0.004 22.081,0.001 2.629,-0.001 4.442,-1.81 4.446,-4.435 C 0.005,7.229 0.006,3.614 0,0 m -4.259,18.088 c -6.98,-0.002 -13.961,0.002 -20.941,-0.005 -0.862,0 -1.732,0.019 -2.582,-0.093 -3.324,-0.436 -5.931,-3.444 -5.934,-6.795 -0.004,-3.775 -0.002,-7.551 0,-11.327 0.003,-3.964 3.101,-7.062 7.067,-7.066 3.731,-0.004 7.463,-10e-4 11.195,-10e-4 h 5.576 c 1.858,0 3.717,-0.001 5.575,0 4.029,0.004 7.109,3.084 7.112,7.11 0.002,3.703 0,7.405 10e-4,11.109 0.002,3.955 -3.114,7.068 -7.069,7.068"
             style="fill:#ffffff;fill-opacity:1;fill-rule:nonzero;stroke:none"
             id="path643" />
        </g>
        <g
           id="g645"
           transform="translate(787.5703,842.4263)">
          <path
             d="m 0,0 c -4.195,0.004 -8.39,0.005 -12.585,0.001 -0.821,-0.001 -1.406,-0.59 -1.419,-1.405 -0.006,-0.409 -0.001,-0.819 0,-1.228 0.002,-1.045 0.54,-1.577 1.6,-1.578 2.031,-0.001 4.063,0 6.094,0 2.106,0 4.21,-0.003 6.316,0.002 0.852,0.002 1.43,0.579 1.439,1.427 0.006,0.438 0.006,0.877 10e-4,1.315 C 1.437,-0.585 0.871,-0.001 0,0"
             style="fill:#ffffff;fill-opacity:1;fill-rule:nonzero;stroke:none"
             id="path647" />
        </g>
        <g
           id="g649"
           transform="translate(770.0674,849.4254)">
          <path
             d="M 0,0 C 1.597,0.004 2.225,0.535 2.091,2.118 2.09,2.381 2.098,2.644 2.088,2.905 2.062,3.64 1.475,4.222 0.735,4.238 0.225,4.251 -0.286,4.252 -0.797,4.238 -1.513,4.217 -2.09,3.637 -2.118,2.921 -2.128,2.659 -2.102,2.395 -2.124,2.134 -2.255,0.554 -1.65,-0.003 0,0"
             style="fill:#ffffff;fill-opacity:1;fill-rule:nonzero;stroke:none"
             id="path651" />
        </g>
        <g
           id="g653"
           transform="translate(776.3291,849.4586)">
          <path
             d="M 0,0 C 0.511,-0.012 1.022,-0.015 1.532,0.001 2.245,0.023 2.823,0.609 2.851,1.322 2.861,1.585 2.835,1.85 2.856,2.11 2.989,3.727 2.325,4.346 0.772,4.208 c -0.234,0 -0.467,0.003 -0.701,0 C -0.775,4.197 -1.349,3.624 -1.356,2.774 -1.361,2.308 -1.365,1.841 -1.355,1.374 -1.341,0.609 -0.759,0.018 0,0"
             style="fill:#ffffff;fill-opacity:1;fill-rule:nonzero;stroke:none"
             id="path655" />
        </g>
        <g
           id="g657"
           transform="translate(781.9961,850.8795)">
          <path
             d="m 0,0 c 0.014,-0.821 0.588,-1.408 1.398,-1.422 0.497,-0.009 0.994,-0.013 1.489,0.002 0.714,0.022 1.299,0.606 1.32,1.318 C 4.223,0.424 4.224,0.95 4.206,1.475 4.183,2.185 3.591,2.76 2.877,2.785 2.614,2.795 2.35,2.77 2.089,2.79 0.491,2.918 -0.133,2.294 0,0.7 0,0.467 -0.004,0.233 0,0"
             style="fill:#ffffff;fill-opacity:1;fill-rule:nonzero;stroke:none"
             id="path659" />
        </g>
        <g
           id="g661"
           transform="translate(790.3398,849.4595)">
          <path
             d="m 0,0 c 0.525,-0.016 1.051,-0.016 1.576,0.001 0.711,0.021 1.287,0.611 1.314,1.326 0.009,0.262 10e-4,0.526 0.002,0.787 10e-4,0.22 0.004,0.439 0,0.657 C 2.879,3.617 2.305,4.196 1.462,4.206 0.98,4.213 0.499,4.217 0.018,4.204 -0.703,4.186 -1.292,3.612 -1.314,2.899 -1.332,2.375 -1.33,1.849 -1.315,1.324 -1.296,0.612 -0.711,0.022 0,0"
             style="fill:#ffffff;fill-opacity:1;fill-rule:nonzero;stroke:none"
             id="path663" />
        </g>
        <g
           id="g665"
           transform="translate(770.0225,848.0767)">
          <path
             d="m 0,0 c -1.56,-0.005 -2.106,-0.496 -2.105,-2.131 10e-4,-1.596 0.501,-2.14 2.143,-2.14 1.612,0 2.233,0.55 2.098,2.111 C 2.27,-0.495 1.637,0.005 0,0"
             style="fill:#ffffff;fill-opacity:1;fill-rule:nonzero;stroke:none"
             id="path667" />
        </g>
        <g
           id="g669"
           transform="translate(777.0566,843.8355)">
          <path
             d="M 0,0 C 0.233,0 0.467,-0.002 0.7,0.001 1.539,0.011 2.118,0.595 2.125,1.439 2.129,1.921 2.138,2.403 2.123,2.885 2.103,3.595 1.515,4.187 0.807,4.208 0.281,4.224 -0.244,4.224 -0.77,4.208 -1.48,4.187 -2.058,3.597 -2.083,2.883 -2.093,2.62 -2.068,2.355 -2.09,2.095 -2.217,0.509 -1.59,-0.134 0,0"
             style="fill:#ffffff;fill-opacity:1;fill-rule:nonzero;stroke:none"
             id="path671" />
        </g>
        <g
           id="g673"
           transform="translate(781.9961,845.2623)">
          <path
             d="m 0,0 c 0.012,-0.838 0.597,-1.42 1.439,-1.427 0.482,-0.004 0.963,-0.01 1.445,0.003 0.708,0.02 1.303,0.612 1.324,1.317 0.015,0.525 0.017,1.051 0,1.576 C 4.186,2.177 3.592,2.757 2.881,2.782 2.618,2.792 2.354,2.769 2.093,2.789 0.486,2.912 -0.128,2.289 0,0.684 0,0.467 -0.003,0.233 0,0"
             style="fill:#ffffff;fill-opacity:1;fill-rule:nonzero;stroke:none"
             id="path675" />
        </g>
        <g
           id="g677"
           transform="translate(791.9053,848.0435)">
          <path
             d="m 0,0 c -0.511,0.015 -1.021,0.012 -1.532,0.001 -0.74,-0.017 -1.325,-0.599 -1.351,-1.334 -0.009,-0.262 0.015,-0.526 -0.006,-0.787 -0.126,-1.569 0.489,-2.223 2.096,-2.088 0.234,0 0.468,-0.002 0.701,0.001 0.818,0.011 1.407,0.592 1.417,1.402 0.006,0.496 0.014,0.993 -0.002,1.489 C 1.302,-0.607 0.71,-0.02 0,0"
             style="fill:#ffffff;fill-opacity:1;fill-rule:nonzero;stroke:none"
             id="path679" />
        </g>
      </g>
    </g>
  </g>
</svg>
