<?xml version="1.0" encoding="UTF-8" standalone="no"?>
<!-- Created with Inkscape (http://www.inkscape.org/) -->

<svg
   width="14.274446mm"
   height="14.274095mm"
   viewBox="0 0 14.274446 14.274095"
   version="1.1"
   id="svg4938"
   inkscape:version="1.1.2 (b8e25be833, 2022-02-05)"
   sodipodi:docname="Facebook.svg"
   xmlns:inkscape="http://www.inkscape.org/namespaces/inkscape"
   xmlns:sodipodi="http://sodipodi.sourceforge.net/DTD/sodipodi-0.dtd"
   xmlns="http://www.w3.org/2000/svg"
   xmlns:svg="http://www.w3.org/2000/svg">
  <sodipodi:namedview
     id="namedview4940"
     pagecolor="#ffffff"
     bordercolor="#666666"
     borderopacity="1.0"
     inkscape:pageshadow="2"
     inkscape:pageopacity="0.0"
     inkscape:pagecheckerboard="0"
     inkscape:document-units="mm"
     showgrid="false"
     inkscape:zoom="0.77771465"
     inkscape:cx="-13.501096"
     inkscape:cy="62.362205"
     inkscape:window-width="2560"
     inkscape:window-height="1351"
     inkscape:window-x="-9"
     inkscape:window-y="-9"
     inkscape:window-maximized="1"
     inkscape:current-layer="layer1" />
  <defs
     id="defs4935" />
  <g
     inkscape:label="Layer 1"
     inkscape:groupmode="layer"
     id="layer1"
     transform="translate(-108.53288,-132.00728)">
    <g
       id="g331"
       transform="matrix(0.35277777,0,0,-0.35277777,121.31931,132.00728)">
      <path
         d="m 0,0 h -32.027 c -2.329,0 -4.218,-1.888 -4.218,-4.217 v -32.028 c 0,-2.329 1.889,-4.217 4.218,-4.217 h 17.29 v 17.543 h -3.705 v 5.358 h 3.705 v 1.681 1.646 0.275 c 0,1.585 0.041,4.033 1.193,5.549 1.214,1.605 2.881,2.695 5.748,2.695 4.672,0 6.641,-0.664 6.641,-0.664 l -0.926,-5.488 c 0,0 -1.544,0.445 -2.984,0.445 -1.441,0 -2.731,-0.514 -2.731,-1.955 v -0.582 -1.921 -1.681 h 5.906 l -0.411,-5.358 H -7.796 V -40.462 H 0 c 2.329,0 4.218,1.888 4.218,4.217 V -4.217 C 4.218,-1.888 2.329,0 0,0"
         style="fill:#f03a33;fill-opacity:1;fill-rule:nonzero;stroke:none"
         id="path333" />
    </g>
  </g>
</svg>
