<?xml version="1.0" encoding="UTF-8" standalone="no"?>
<!-- Created with Inkscape (http://www.inkscape.org/) -->

<svg
   width="14.273741mm"
   height="14.2741mm"
   viewBox="0 0 14.273741 14.2741"
   version="1.1"
   id="svg5057"
   inkscape:version="1.1.2 (b8e25be833, 2022-02-05)"
   sodipodi:docname="Instagram.svg"
   xmlns:inkscape="http://www.inkscape.org/namespaces/inkscape"
   xmlns:sodipodi="http://sodipodi.sourceforge.net/DTD/sodipodi-0.dtd"
   xmlns="http://www.w3.org/2000/svg"
   xmlns:svg="http://www.w3.org/2000/svg">
  <sodipodi:namedview
     id="namedview5059"
     pagecolor="#ffffff"
     bordercolor="#666666"
     borderopacity="1.0"
     inkscape:pageshadow="2"
     inkscape:pageopacity="0.0"
     inkscape:pagecheckerboard="0"
     inkscape:document-units="mm"
     showgrid="false"
     inkscape:zoom="1.5554293"
     inkscape:cx="242.05536"
     inkscape:cy="76.827665"
     inkscape:window-width="2560"
     inkscape:window-height="1351"
     inkscape:window-x="-9"
     inkscape:window-y="-9"
     inkscape:window-maximized="1"
     inkscape:current-layer="layer1" />
  <defs
     id="defs5054" />
  <g
     inkscape:label="Layer 1"
     inkscape:groupmode="layer"
     id="layer1"
     transform="translate(-80.29612,-134.04852)">
    <g
       id="g5293">
      <path
         d="m 93.371122,144.27061 c 0,1.57339 -1.279878,2.85327 -2.853267,2.85327 h -6.170083 c -1.573036,0 -2.852914,-1.27988 -2.852914,-2.85327 v -6.16973 c 0,-1.57339 1.279878,-2.85327 2.852914,-2.85327 h 6.170083 c 1.573389,0 2.853267,1.27988 2.853267,2.85327 z m -2.853267,-10.22209 h -6.170083 c -2.234141,0 -4.051652,1.81787 -4.051652,4.05236 v 6.16973 c 0,2.23449 1.817511,4.05201 4.051652,4.05201 h 6.170083 c 2.234142,0 4.052006,-1.81752 4.052006,-4.05201 v -6.16973 c 0,-2.23449 -1.817864,-4.05236 -4.052006,-4.05236"
         style="fill:#f03a33;fill-opacity:1;fill-rule:nonzero;stroke:none;stroke-width:0.352778"
         id="path321" />
      <g
         id="g323"
         transform="matrix(0.35277777,0,0,-0.35277777,87.498525,143.57185)">
        <path
           d="m 0,0 c -3.747,0 -6.796,3.049 -6.796,6.796 0,3.748 3.049,6.797 6.796,6.797 3.747,0 6.796,-3.049 6.796,-6.797 C 6.796,3.049 3.747,0 0,0 m 0,16.99 c -5.621,0 -10.194,-4.573 -10.194,-10.194 0,-5.621 4.573,-10.194 10.194,-10.194 5.621,0 10.194,4.573 10.194,10.194 C 10.194,12.417 5.621,16.99 0,16.99"
           style="fill:#f03a33;fill-opacity:1;fill-rule:nonzero;stroke:none"
           id="path325" />
      </g>
      <g
         id="g327"
         transform="matrix(0.35277777,0,0,-0.35277777,90.87758,136.54882)">
        <path
           d="m 0,0 c -1.334,0 -2.415,-1.081 -2.415,-2.415 0,-1.333 1.081,-2.415 2.415,-2.415 1.333,0 2.415,1.082 2.415,2.415 C 2.415,-1.081 1.333,0 0,0"
           style="fill:#f03a33;fill-opacity:1;fill-rule:nonzero;stroke:none"
           id="path329" />
      </g>
    </g>
  </g>
</svg>
