<?xml version="1.0" encoding="UTF-8" standalone="no"?>
<!-- Created with Inkscape (http://www.inkscape.org/) -->

<svg
   width="37.387035mm"
   height="35.917713mm"
   viewBox="0 0 37.387035 35.917713"
   version="1.1"
   id="svg2422"
   inkscape:version="1.1.2 (b8e25be833, 2022-02-05)"
   sodipodi:docname="Miles.svg"
   xmlns:inkscape="http://www.inkscape.org/namespaces/inkscape"
   xmlns:sodipodi="http://sodipodi.sourceforge.net/DTD/sodipodi-0.dtd"
   xmlns="http://www.w3.org/2000/svg"
   xmlns:svg="http://www.w3.org/2000/svg">
  <sodipodi:namedview
     id="namedview2424"
     pagecolor="#ffffff"
     bordercolor="#666666"
     borderopacity="1.0"
     inkscape:pageshadow="2"
     inkscape:pageopacity="0.0"
     inkscape:pagecheckerboard="0"
     inkscape:document-units="mm"
     showgrid="false"
     inkscape:zoom="0.77771465"
     inkscape:cx="93.221852"
     inkscape:cy="91.936034"
     inkscape:window-width="2560"
     inkscape:window-height="1351"
     inkscape:window-x="-9"
     inkscape:window-y="-9"
     inkscape:window-maximized="1"
     inkscape:current-layer="layer1" />
  <defs
     id="defs2419" />
  <g
     inkscape:label="Layer 1"
     inkscape:groupmode="layer"
     id="layer1"
     transform="translate(-80.306486,-124.27198)">
    <g
       id="g2554">
      <g
         id="g293"
         transform="matrix(0.35277777,0,0,-0.35277777,112.77086,149.96796)">
        <path
           d="m 0,0 c -3.55,0 -6.787,-0.689 -9.25,-1.822 l -16.456,7.26 c 0.737,0.883 1.148,1.855 1.148,2.879 0,3.076 -3.694,5.702 -8.903,6.752 l -4.868,-6.752 -5.004,6.8 c -5.331,-1.019 -9.133,-3.679 -9.133,-6.8 0,-4.001 6.247,-7.244 13.954,-7.244 2.854,0 5.507,0.446 7.717,1.209 l 17.32,-7.641 c -0.283,-0.547 -0.444,-1.12 -0.471,-1.71 L -65.779,-18.3 c -2.356,2.27 -6.977,3.813 -12.292,3.813 -7.707,0 -13.954,-3.243 -13.954,-7.244 0,-4 6.247,-7.244 13.954,-7.244 6.841,0 12.528,2.557 13.72,5.929 l 53.115,11.508 c 2.541,-1.789 6.626,-2.949 11.236,-2.949 7.707,0 13.954,3.243 13.954,7.243 C 13.954,-3.243 7.707,0 0,0"
           style="fill:#e01f29;fill-opacity:1;fill-rule:nonzero;stroke:none"
           id="path295" />
      </g>
      <g
         id="g297"
         transform="matrix(0.35277777,0,0,-0.35277777,95.02261,133.12106)">
        <path
           d="m 0,0 c 0,6.516 5.282,11.797 11.797,11.797 6.515,0 11.798,-5.281 11.798,-11.797 0,-6.516 -5.283,-11.797 -11.798,-11.797 C 5.282,-11.797 0,-6.516 0,0 m 16.848,-32.686 13.565,18.819 v 0.001 c 3.319,4.108 5.31,9.332 5.31,15.025 0,13.214 -10.712,23.925 -23.926,23.925 -13.214,0 -23.926,-10.711 -23.926,-23.925 0,-5.515 1.871,-10.59 5.005,-14.636 L 6.977,-32.638 c 1.502,0.287 3.126,0.444 4.82,0.444 1.782,0 3.484,-0.176 5.051,-0.492"
           style="fill:#e01f29;fill-opacity:1;fill-rule:nonzero;stroke:none"
           id="path299" />
      </g>
    </g>
  </g>
</svg>
