<?xml version="1.0" encoding="UTF-8" standalone="no"?>
<!-- Created with Inkscape (http://www.inkscape.org/) -->

<svg
   width="26.204342mm"
   height="26.20433mm"
   viewBox="0 0 26.204342 26.20433"
   version="1.1"
   id="svg3013"
   inkscape:version="1.1.2 (b8e25be833, 2022-02-05)"
   sodipodi:docname="Phone Read.svg"
   xmlns:inkscape="http://www.inkscape.org/namespaces/inkscape"
   xmlns:sodipodi="http://sodipodi.sourceforge.net/DTD/sodipodi-0.dtd"
   xmlns="http://www.w3.org/2000/svg"
   xmlns:svg="http://www.w3.org/2000/svg">
  <sodipodi:namedview
     id="namedview3015"
     pagecolor="#ffffff"
     bordercolor="#666666"
     borderopacity="1.0"
     inkscape:pageshadow="2"
     inkscape:pageopacity="0.0"
     inkscape:pagecheckerboard="0"
     inkscape:document-units="mm"
     showgrid="false"
     inkscape:zoom="3.1108586"
     inkscape:cx="140.95787"
     inkscape:cy="61.558568"
     inkscape:window-width="2560"
     inkscape:window-height="1351"
     inkscape:window-x="-9"
     inkscape:window-y="-9"
     inkscape:window-maximized="1"
     inkscape:current-layer="layer1" />
  <defs
     id="defs3010" />
  <g
     inkscape:label="Layer 1"
     inkscape:groupmode="layer"
     id="layer1"
     transform="translate(-85.897829,-115.83597)">
    <g
       id="g3239">
      <path
         d="M 112.10217,142.0403 H 85.897829 v -26.20433 h 26.204341 z"
         style="fill:#e01f29;fill-opacity:1;fill-rule:nonzero;stroke:none;stroke-width:0.352778"
         id="path393" />
      <g
         id="g415"
         transform="matrix(0.35277777,0,0,-0.35277777,95.199088,128.85608)">
        <path
           d="m 0,0 v -2.281 c 0,-6.603 0.003,-13.206 -0.005,-19.81 -0.001,-0.738 0.274,-1.328 0.809,-1.807 0.623,-0.559 1.374,-0.73 2.194,-0.729 5.508,0.008 11.016,0.005 16.524,0.006 0.334,0 0.672,-0.019 1.003,0.015 1.078,0.108 1.87,0.632 2.212,1.687 0.129,0.396 0.176,0.833 0.177,1.252 0.008,14.425 0.007,28.849 0.006,43.273 0,0.274 0.005,0.548 -0.012,0.822 -0.091,1.457 -0.805,2.278 -2.247,2.473 -0.689,0.094 -1.396,0.047 -2.094,0.076 -0.411,0.015 -0.606,-0.18 -0.678,-0.574 -0.16,-0.873 -0.535,-1.179 -1.44,-1.18 C 13.147,23.219 9.845,23.218 6.543,23.224 5.546,23.225 5.156,23.58 5.036,24.587 5,24.884 4.878,25.021 4.572,25.013 3.903,24.992 3.231,25.015 2.565,24.965 1.861,24.912 1.25,24.621 0.763,24.091 0.194,23.472 0,22.729 0,21.911 0.001,14.607 0,7.304 0,0 m -1.47,0.024 c 0,7.485 -0.002,14.97 0.002,22.455 0,1.837 1.059,3.252 2.779,3.709 0.333,0.089 0.689,0.132 1.034,0.133 6.101,0.008 12.201,0.01 18.301,0.004 2.154,-0.002 3.808,-1.617 3.812,-3.766 0.013,-7.805 0.005,-15.609 0.006,-23.413 0,-7.195 0.001,-14.388 -10e-4,-21.583 0,-1.855 -1.114,-3.323 -2.858,-3.75 -0.35,-0.085 -0.721,-0.119 -1.083,-0.119 -6.04,-0.006 -12.079,-0.006 -18.119,-0.005 -2.273,0.001 -3.872,1.604 -3.872,3.88 -0.002,7.486 -10e-4,14.97 -10e-4,22.455"
           style="fill:#ffffff;fill-opacity:1;fill-rule:nonzero;stroke:none"
           id="path417" />
      </g>
    </g>
  </g>
</svg>
