<?xml version="1.0" encoding="UTF-8" standalone="no"?>
<!-- Created with Inkscape (http://www.inkscape.org/) -->

<svg
   width="210mm"
   height="297mm"
   viewBox="0 0 210 297"
   version="1.1"
   id="svg804"
   inkscape:version="1.1.2 (b8e25be833, 2022-02-05)"
   sodipodi:docname="Phone.svg"
   xmlns:inkscape="http://www.inkscape.org/namespaces/inkscape"
   xmlns:sodipodi="http://sodipodi.sourceforge.net/DTD/sodipodi-0.dtd"
   xmlns="http://www.w3.org/2000/svg"
   xmlns:svg="http://www.w3.org/2000/svg">
  <sodipodi:namedview
     id="namedview806"
     pagecolor="#ffffff"
     bordercolor="#666666"
     borderopacity="1.0"
     inkscape:pageshadow="2"
     inkscape:pageopacity="0.0"
     inkscape:pagecheckerboard="0"
     inkscape:document-units="mm"
     showgrid="false"
     inkscape:zoom="0.77771465"
     inkscape:cx="396.67505"
     inkscape:cy="561.25984"
     inkscape:window-width="2560"
     inkscape:window-height="1351"
     inkscape:window-x="-9"
     inkscape:window-y="-9"
     inkscape:window-maximized="1"
     inkscape:current-layer="layer1" />
  <defs
     id="defs801">
    <clipPath
       clipPathUnits="userSpaceOnUse"
       id="clipPath701">
      <path
         d="M 0,4396.971 H 1423 V 0 H 0 Z"
         id="path699" />
    </clipPath>
  </defs>
  <g
     inkscape:label="Layer 1"
     inkscape:groupmode="layer"
     id="layer1">
    <g
       id="g695"
       transform="matrix(0.35277777,0,0,-0.35277777,-239.44507,1550.8795)">
      <g
         id="g697"
         clip-path="url(#clipPath701)">
        <g
           id="g703"
           transform="translate(871.3516,3968.9038)">
          <path
             d="m 0,0 v -21.291 c -0.001,-61.626 0.03,-123.253 -0.05,-184.879 -0.009,-6.894 2.557,-12.401 7.557,-16.878 5.816,-5.209 12.819,-6.806 20.472,-6.795 51.406,0.072 102.812,0.045 154.218,0.056 3.123,0.001 6.271,-0.178 9.366,0.135 10.055,1.015 17.447,5.908 20.641,15.744 1.199,3.693 1.646,7.782 1.648,11.69 0.081,134.622 0.067,269.244 0.062,403.865 0,2.556 0.044,5.119 -0.114,7.666 -0.85,13.602 -7.517,21.266 -20.971,23.088 -6.427,0.871 -13.026,0.438 -19.543,0.698 -3.834,0.153 -5.652,-1.678 -6.327,-5.349 -1.495,-8.143 -4.995,-11.007 -13.444,-11.017 -30.815,-0.037 -61.63,-0.041 -92.446,0.006 -9.302,0.014 -12.952,3.33 -14.069,12.722 -0.33,2.777 -1.472,4.065 -4.329,3.977 -6.242,-0.19 -12.509,0.018 -18.728,-0.445 C 17.372,232.504 11.668,229.787 7.12,224.836 1.815,219.061 -0.005,212.124 -0.003,204.489 0.012,136.326 0.006,68.163 0,0 m -13.718,0.223 c 10e-4,69.855 -0.018,139.71 0.015,209.565 0.008,17.155 9.889,30.363 25.933,34.625 3.115,0.827 6.434,1.234 9.66,1.238 56.934,0.076 113.869,0.097 170.803,0.041 20.097,-0.019 35.531,-15.091 35.567,-35.157 0.131,-72.836 0.056,-145.673 0.059,-218.51 0.002,-67.142 0.017,-134.284 -0.004,-201.426 -0.005,-17.317 -10.397,-31.011 -26.672,-34.997 -3.269,-0.801 -6.735,-1.11 -10.11,-1.114 -56.366,-0.067 -112.733,-0.068 -169.1,-0.042 -21.218,0.01 -36.137,14.964 -36.143,36.211 -0.02,69.855 -0.008,139.71 -0.008,209.566"
             style="fill:#ffffff;fill-opacity:1;fill-rule:nonzero;stroke:none"
             id="path705" />
        </g>
      </g>
    </g>
  </g>
</svg>
