<?xml version="1.0" encoding="UTF-8" standalone="no"?>
<!-- Created with Inkscape (http://www.inkscape.org/) -->

<svg
   width="26.383909mm"
   height="26.735369mm"
   viewBox="0 0 26.383909 26.735369"
   version="1.1"
   id="svg2674"
   inkscape:version="1.1.2 (b8e25be833, 2022-02-05)"
   sodipodi:docname="Reports.svg"
   xmlns:inkscape="http://www.inkscape.org/namespaces/inkscape"
   xmlns:sodipodi="http://sodipodi.sourceforge.net/DTD/sodipodi-0.dtd"
   xmlns="http://www.w3.org/2000/svg"
   xmlns:svg="http://www.w3.org/2000/svg">
  <sodipodi:namedview
     id="namedview2676"
     pagecolor="#ffffff"
     bordercolor="#666666"
     borderopacity="1.0"
     inkscape:pageshadow="2"
     inkscape:pageopacity="0.0"
     inkscape:pagecheckerboard="0"
     inkscape:document-units="mm"
     showgrid="false"
     inkscape:zoom="0.77771465"
     inkscape:cx="-27.645101"
     inkscape:cy="58.504749"
     inkscape:window-width="2560"
     inkscape:window-height="1351"
     inkscape:window-x="-9"
     inkscape:window-y="-9"
     inkscape:window-maximized="1"
     inkscape:current-layer="layer1" />
  <defs
     id="defs2671">
    <clipPath
       clipPathUnits="userSpaceOnUse"
       id="clipPath235">
      <path
         d="M 0,4396.971 H 1423 V 0 H 0 Z"
         id="path233" />
    </clipPath>
  </defs>
  <g
     inkscape:label="Layer 1"
     inkscape:groupmode="layer"
     id="layer1"
     transform="translate(-112.34413,-132.92099)">
    <g
       id="g229"
       transform="matrix(0.35277777,0,0,-0.35277777,-89.986929,1171.5614)">
      <g
         id="g231"
         clip-path="url(#clipPath235)">
        <g
           id="g237"
           transform="translate(648.2998,2921.1792)">
          <path
             d="m 0,0 c 0.003,0.022 0.004,0.042 0.007,0.064 0.006,0.051 0.011,0.103 0.014,0.155 0,0.01 0.003,0.022 0.003,0.032 0,0.012 -0.001,0.021 0,0.034 0.002,0.055 0.002,0.11 -0.003,0.165 0,0.018 0,0.039 0,0.058 -0.005,0.068 -0.011,0.138 -0.023,0.207 -0.004,0.022 -0.008,0.044 -0.013,0.066 -0.007,0.046 -0.016,0.092 -0.028,0.136 -0.007,0.03 -0.016,0.06 -0.024,0.09 -0.012,0.037 -0.025,0.073 -0.036,0.108 -0.01,0.032 -0.02,0.062 -0.034,0.09 -0.014,0.04 -0.031,0.078 -0.048,0.117 -0.01,0.023 -0.02,0.047 -0.033,0.071 -0.029,0.06 -0.061,0.118 -0.096,0.175 -0.008,0.016 -0.019,0.031 -0.03,0.047 -0.027,0.042 -0.056,0.085 -0.088,0.127 -0.012,0.02 -0.027,0.037 -0.042,0.055 -0.029,0.037 -0.058,0.074 -0.089,0.11 -0.018,0.016 -0.033,0.035 -0.05,0.051 -0.033,0.035 -0.066,0.068 -0.102,0.1 -0.015,0.018 -0.033,0.033 -0.051,0.05 -0.038,0.034 -0.077,0.065 -0.116,0.096 -0.017,0.013 -0.032,0.026 -0.048,0.037 h -0.002 c -0.054,0.041 -0.11,0.078 -0.164,0.112 -0.026,0.015 -0.051,0.028 -0.078,0.043 -0.034,0.02 -0.07,0.04 -0.105,0.057 C -1.307,2.467 -1.336,2.48 -1.365,2.492 -1.4,2.508 -1.436,2.524 -1.473,2.536 -1.502,2.548 -1.531,2.56 -1.561,2.569 -1.603,2.584 -1.645,2.596 -1.687,2.607 -1.712,2.615 -1.735,2.622 -1.76,2.629 -1.827,2.645 -1.894,2.658 -1.963,2.669 -1.981,2.672 -2,2.674 -2.021,2.675 -2.074,2.683 -2.127,2.688 -2.18,2.69 -2.191,2.692 -2.203,2.693 -2.215,2.693 l -12.933,0.563 c -1.299,0.055 -2.387,-0.945 -2.442,-2.239 -0.058,-1.292 0.945,-2.387 2.238,-2.442 l 6.219,-0.271 -29.541,-21.422 -14.358,18.801 c -0.77,1.009 -2.204,1.22 -3.234,0.478 L -73.79,-16.491 c -1.05,-0.759 -1.287,-2.221 -0.53,-3.271 0.758,-1.05 2.222,-1.286 3.272,-0.529 l 15.676,11.316 14.36,-18.804 c 0.461,-0.604 1.159,-0.921 1.866,-0.921 0.475,0 0.957,0.145 1.372,0.446 l 30.928,22.428 -1.818,-5.451 c -0.408,-1.228 0.255,-2.556 1.484,-2.963 1.226,-0.41 2.553,0.253 2.962,1.48 l 4.111,12.332 c 0.001,0.004 0.003,0.01 0.005,0.016 l 0.008,0.024 c 0.013,0.04 0.025,0.081 0.035,0.121 0.009,0.033 0.018,0.066 0.025,0.099 C -0.021,-0.112 -0.009,-0.057 0,0"
             style="fill:#e01f29;fill-opacity:1;fill-rule:nonzero;stroke:none"
             id="path239" />
        </g>
        <g
           id="g241"
           transform="translate(621.1475,2896.3159)">
          <path
             d="M 0,0 V -27.923 H 11.996 V 8.7 Z"
             style="fill:#e01f29;fill-opacity:1;fill-rule:nonzero;stroke:none"
             id="path243" />
        </g>
        <g
           id="g245"
           transform="translate(610.5259,2888.6143)">
          <path
             d="m 0,0 c -0.415,-0.302 -0.895,-0.447 -1.373,-0.447 -0.705,0 -1.404,0.319 -1.865,0.922 l -1.51,1.978 V -20.222 H 7.248 V 5.255 Z"
             style="fill:#e01f29;fill-opacity:1;fill-rule:nonzero;stroke:none"
             id="path247" />
        </g>
        <g
           id="g249"
           transform="translate(592.9282,2907.8945)">
          <path
             d="M 0,0 -2.521,-1.821 V -39.502 H 9.475 v 27.094 z"
             style="fill:#e01f29;fill-opacity:1;fill-rule:nonzero;stroke:none"
             id="path251" />
        </g>
        <g
           id="g253"
           transform="translate(577.252,2896.5767)">
          <path
             d="m 0,0 c -0.667,-0.481 -1.502,-0.561 -2.214,-0.284 v -27.9 H 9.781 V 7.062 Z"
             style="fill:#e01f29;fill-opacity:1;fill-rule:nonzero;stroke:none"
             id="path255" />
        </g>
        <g
           id="g257"
           transform="translate(613.0967,2920.9976)">
          <path
             d="m 0,0 c 0.979,0.219 1.696,0.58 2.151,1.083 0.455,0.503 0.682,1.064 0.682,1.689 0,0.543 -0.191,1.044 -0.576,1.5 C 1.871,4.727 1.119,5.152 0,5.544 Z M -2.521,17.013 C -3.258,16.77 -3.772,16.47 -4.058,16.111 -4.347,15.753 -4.49,15.331 -4.49,14.844 c 0,-0.51 0.145,-0.952 0.438,-1.327 0.292,-0.378 0.802,-0.692 1.531,-0.945 z M 8.585,15.287 2.16,14.268 C 1.838,15.084 1.545,15.651 1.288,15.969 1.028,16.284 0.6,16.605 0,16.928 V 11.93 C 3.5,10.997 5.838,10.012 7.013,8.975 8.567,7.581 9.346,5.812 9.346,3.667 9.346,2.412 9.066,1.26 8.507,0.21 7.948,-0.838 7.234,-1.714 6.366,-2.417 5.497,-3.12 4.573,-3.63 3.593,-3.946 2.615,-4.264 1.417,-4.451 0,-4.508 v -3.265 h -2.521 v 3.265 c -1.693,0.15 -3.066,0.422 -4.121,0.82 -1.051,0.398 -1.962,0.947 -2.727,1.649 -0.767,0.703 -1.357,1.459 -1.77,2.272 -0.417,0.812 -0.728,1.794 -0.933,2.945 l 6.977,0.813 c 0.207,-1.14 0.487,-1.964 0.838,-2.47 0.35,-0.508 0.93,-0.957 1.736,-1.35 v 6.104 c -2.326,0.647 -3.977,1.206 -4.948,1.679 -0.975,0.472 -1.817,1.23 -2.531,2.273 -0.714,1.042 -1.07,2.313 -1.07,3.81 0,2.052 0.716,3.765 2.149,5.143 1.435,1.377 3.566,2.141 6.4,2.292 V 23.18 H 0 V 21.472 C 2.58,21.309 4.552,20.699 5.917,19.639 7.281,18.58 8.171,17.128 8.585,15.287"
             style="fill:#e01f29;fill-opacity:1;fill-rule:nonzero;stroke:none"
             id="path259" />
        </g>
        <g
           id="g261"
           transform="translate(642.7959,2905.6929)">
          <path
             d="M 0,0 C -2.153,0 -4.017,1.232 -4.932,3.029 L -6.466,1.8 V -37.3 H 5.53 V 5.531 C 5.53,2.477 3.055,0 0,0"
             style="fill:#e01f29;fill-opacity:1;fill-rule:nonzero;stroke:none"
             id="path263" />
        </g>
      </g>
    </g>
  </g>
</svg>
