<?xml version="1.0" encoding="UTF-8" standalone="no"?>
<!-- Created with Inkscape (http://www.inkscape.org/) -->

<svg
   width="21.184305mm"
   height="21.183952mm"
   viewBox="0 0 21.184305 21.183952"
   version="1.1"
   id="svg3880"
   inkscape:version="1.1.2 (b8e25be833, 2022-02-05)"
   sodipodi:docname="Signign Red.svg"
   xmlns:inkscape="http://www.inkscape.org/namespaces/inkscape"
   xmlns:sodipodi="http://sodipodi.sourceforge.net/DTD/sodipodi-0.dtd"
   xmlns="http://www.w3.org/2000/svg"
   xmlns:svg="http://www.w3.org/2000/svg">
  <sodipodi:namedview
     id="namedview3882"
     pagecolor="#ffffff"
     bordercolor="#666666"
     borderopacity="1.0"
     inkscape:pageshadow="2"
     inkscape:pageopacity="0.0"
     inkscape:pagecheckerboard="0"
     inkscape:document-units="mm"
     showgrid="false"
     inkscape:zoom="1.5554293"
     inkscape:cx="202.83789"
     inkscape:cy="-35.038558"
     inkscape:window-width="2560"
     inkscape:window-height="1351"
     inkscape:window-x="-9"
     inkscape:window-y="-9"
     inkscape:window-maximized="1"
     inkscape:current-layer="layer1" />
  <defs
     id="defs3877" />
  <g
     inkscape:label="Layer 1"
     inkscape:groupmode="layer"
     id="layer1"
     transform="translate(-59.830528,-90.789467)">
    <g
       id="g4007">
      <path
         d="m 81.014833,101.38162 c 0,5.84976 -4.742392,10.5918 -10.592153,10.5918 -5.849761,0 -10.592152,-4.74204 -10.592152,-10.5918 0,-5.850114 4.742391,-10.592153 10.592152,-10.592153 5.849761,0 10.592153,4.742039 10.592153,10.592153"
         style="fill:#e01f29;fill-opacity:1;fill-rule:nonzero;stroke:none;stroke-width:0.352778"
         id="path561" />
      <g
         id="g563"
         transform="matrix(0.35277777,0,0,-0.35277777,64.236272,106.09111)">
        <path
           d="m 0,0 3.152,7.376 c 0.013,0.03 1.332,3.139 4.521,12.492 0.871,2.554 0.489,3.197 0.485,3.203 -0.49,0.27 -2.834,-0.509 -4.98,-1.903 L 1.54,23.682 c 1.367,0.89 6.019,3.654 8.476,1.742 2.15,-1.672 0.906,-5.324 0.497,-6.525 -0.825,-2.419 -1.526,-4.422 -2.111,-6.066 2.586,2.585 5.461,5.402 6.691,6.409 1.223,1.002 3.021,2.237 4.479,1.389 0.39,-0.226 1.266,-0.929 0.99,-2.58 -0.166,-1.006 0.117,-3.982 1.027,-4.654 0.226,-0.168 0.62,-0.112 1.167,0.162 4.309,2.154 12.115,5.841 12.193,5.878 l 1.281,-2.712 c -0.078,-0.038 -7.853,-3.71 -12.132,-5.85 -2.042,-1.021 -3.46,-0.504 -4.291,0.108 -1.909,1.411 -2.268,4.561 -2.271,6.358 C 17.376,17.225 17.195,17.086 16.992,16.92 14.694,15.04 5.695,5.831 5.604,5.738 Z"
           style="fill:#ffffff;fill-opacity:1;fill-rule:nonzero;stroke:none"
           id="path565" />
      </g>
    </g>
  </g>
</svg>
