<?xml version="1.0" encoding="UTF-8" standalone="no"?>
<!-- Created with Inkscape (http://www.inkscape.org/) -->

<svg
   width="21.184305mm"
   height="21.183952mm"
   viewBox="0 0 21.184305 21.183952"
   version="1.1"
   id="svg4382"
   inkscape:version="1.1.2 (b8e25be833, 2022-02-05)"
   sodipodi:docname="Tax Red.svg"
   xmlns:inkscape="http://www.inkscape.org/namespaces/inkscape"
   xmlns:sodipodi="http://sodipodi.sourceforge.net/DTD/sodipodi-0.dtd"
   xmlns="http://www.w3.org/2000/svg"
   xmlns:svg="http://www.w3.org/2000/svg">
  <sodipodi:namedview
     id="namedview4384"
     pagecolor="#ffffff"
     bordercolor="#666666"
     borderopacity="1.0"
     inkscape:pageshadow="2"
     inkscape:pageopacity="0.0"
     inkscape:pagecheckerboard="0"
     inkscape:document-units="mm"
     showgrid="false"
     inkscape:zoom="0.77771465"
     inkscape:cx="25.073464"
     inkscape:cy="109.93749"
     inkscape:window-width="2560"
     inkscape:window-height="1351"
     inkscape:window-x="-9"
     inkscape:window-y="-9"
     inkscape:window-maximized="1"
     inkscape:current-layer="layer1" />
  <defs
     id="defs4379">
    <clipPath
       clipPathUnits="userSpaceOnUse"
       id="clipPath579">
      <path
         d="M 0,4396.971 H 1423 V 0 H 0 Z"
         id="path577" />
    </clipPath>
  </defs>
  <g
     inkscape:label="Layer 1"
     inkscape:groupmode="layer"
     id="layer1"
     transform="translate(-98.273831,-119.36679)">
    <g
       id="g573"
       transform="matrix(0.35277777,0,0,-0.35277777,-261.20527,471.12348)">
      <g
         id="g575"
         clip-path="url(#clipPath579)">
        <g
           id="g581"
           transform="translate(1079.0459,967.0806)">
          <path
             d="m 0,0 c 0,-16.582 -13.442,-30.024 -30.024,-30.024 -16.583,0 -30.026,13.442 -30.026,30.024 0,16.583 13.443,30.025 30.026,30.025 C -13.442,30.025 0,16.583 0,0"
             style="fill:#e01f29;fill-opacity:1;fill-rule:nonzero;stroke:none"
             id="path583" />
        </g>
        <g
           id="g585"
           transform="translate(1050.0635,967.9888)">
          <path
             d="m 0,0 v -4.652 c 0.808,0.111 1.464,0.387 1.971,0.828 0.506,0.442 0.758,0.961 0.758,1.557 0,0.533 -0.212,0.992 -0.637,1.378 C 1.666,-0.504 0.969,-0.207 0,0"
             style="fill:#ffffff;fill-opacity:1;fill-rule:nonzero;stroke:none"
             id="path587" />
        </g>
        <g
           id="g589"
           transform="translate(1054.9824,962.5132)">
          <path
             d="m 0,0 c -1.18,-0.986 -2.819,-1.591 -4.919,-1.813 v -2.231 h -2.343 v 2.171 c -1.863,0.167 -3.376,0.68 -4.54,1.539 -1.162,0.858 -1.905,2.071 -2.228,3.638 l 4.216,0.334 C -9.642,3.002 -9.319,2.453 -8.845,1.992 -8.371,1.53 -7.843,1.196 -7.262,0.99 v 4.998 c -2.111,0.446 -3.659,1.119 -4.644,2.022 -0.986,0.902 -1.479,1.998 -1.479,3.286 0,1.305 0.558,2.399 1.673,3.286 1.114,0.887 2.598,1.398 4.45,1.533 v 1.181 h 2.343 v -1.181 c 1.712,-0.151 3.074,-0.583 4.087,-1.294 1.012,-0.712 1.658,-1.664 1.938,-2.857 L -2.98,11.57 c -0.249,0.939 -0.895,1.576 -1.939,1.909 V 8.815 C -2.335,8.298 -0.573,7.628 0.363,6.805 1.301,5.982 1.769,4.927 1.769,3.638 1.769,2.198 1.179,0.985 0,0 m -5.962,20.728 c -10.692,0 -19.392,-6.164 -19.392,-13.74 0,-3.572 1.951,-6.965 5.491,-9.552 0.602,-0.442 0.978,-1.074 1.087,-1.829 0.266,-1.855 -1.141,-4.118 -3.447,-7.2 4.456,0.9 7.979,2.236 10.71,3.273 2.399,0.91 4.132,1.568 5.551,1.568 10.693,0 19.393,6.163 19.393,13.74 0,7.576 -8.7,13.74 -19.393,13.74"
             style="fill:#ffffff;fill-opacity:1;fill-rule:nonzero;stroke:none"
             id="path591" />
        </g>
        <g
           id="g593"
           transform="translate(1045.6367,973.9527)">
          <path
             d="M 0,0 C 0,-0.422 0.172,-0.813 0.517,-1.175 0.861,-1.537 1.384,-1.829 2.084,-2.052 V 2.075 C 1.448,1.916 0.942,1.646 0.565,1.265 0.188,0.883 0,0.461 0,0"
             style="fill:#ffffff;fill-opacity:1;fill-rule:nonzero;stroke:none"
             id="path595" />
        </g>
      </g>
    </g>
  </g>
</svg>
