<?xml version="1.0" encoding="UTF-8" standalone="no"?>
<!-- Created with Inkscape (http://www.inkscape.org/) -->

<svg
   width="17.849297mm"
   height="12.502885mm"
   viewBox="0 0 17.849297 12.502885"
   version="1.1"
   id="svg5398"
   inkscape:version="1.1.2 (b8e25be833, 2022-02-05)"
   sodipodi:docname="Youtube Icon.svg"
   xmlns:inkscape="http://www.inkscape.org/namespaces/inkscape"
   xmlns:sodipodi="http://sodipodi.sourceforge.net/DTD/sodipodi-0.dtd"
   xmlns="http://www.w3.org/2000/svg"
   xmlns:svg="http://www.w3.org/2000/svg">
  <sodipodi:namedview
     id="namedview5400"
     pagecolor="#ffffff"
     bordercolor="#666666"
     borderopacity="1.0"
     inkscape:pageshadow="2"
     inkscape:pageopacity="0.0"
     inkscape:pagecheckerboard="0"
     inkscape:document-units="mm"
     showgrid="false"
     inkscape:zoom="0.77771465"
     inkscape:cx="111.22331"
     inkscape:cy="64.933842"
     inkscape:window-width="2560"
     inkscape:window-height="1351"
     inkscape:window-x="-9"
     inkscape:window-y="-9"
     inkscape:window-maximized="1"
     inkscape:current-layer="layer1" />
  <defs
     id="defs5395" />
  <g
     inkscape:label="Layer 1"
     inkscape:groupmode="layer"
     id="layer1"
     transform="translate(-75.44649,-131.19185)">
    <g
       id="g335"
       transform="matrix(0.35277777,0,0,-0.35277777,87.214698,137.43752)">
      <path
         d="M 0,0 C -4.397,2.533 -8.68,5.001 -13.03,7.508 V -7.51 C -8.672,-4.997 -4.396,-2.533 0,0 m -5.466,-17.737 h -5.17 c -0.221,0.024 -0.443,0.064 -0.666,0.07 -2.658,0.067 -5.32,0.056 -7.972,0.213 -2.705,0.16 -5.405,0.455 -8.1,0.75 -1.397,0.152 -2.508,0.915 -3.471,1.912 -1.317,1.366 -1.646,3.117 -1.887,4.884 -0.667,4.891 -0.773,9.808 -0.453,14.725 0.155,2.364 0.409,4.739 0.87,7.058 0.529,2.668 2.282,4.398 4.993,4.816 2.583,0.4 5.203,0.638 7.815,0.756 7.635,0.344 15.277,0.342 22.911,0 2.575,-0.115 5.158,-0.349 7.706,-0.731 2.836,-0.425 4.532,-2.229 5.175,-4.998 0.652,-2.803 0.777,-5.663 0.885,-8.525 0.165,-4.4 0.045,-8.789 -0.543,-13.157 -0.271,-2.012 -0.767,-3.915 -2.4,-5.345 -1.402,-1.226 -3.102,-1.527 -4.836,-1.717 -4.697,-0.515 -9.418,-0.549 -14.135,-0.64 -0.241,-0.005 -0.482,-0.047 -0.722,-0.071"
         style="fill:#f03a33;fill-opacity:1;fill-rule:nonzero;stroke:none"
         id="path337" />
    </g>
  </g>
</svg>
